<svg width="12" height="12" viewBox="0 0 12 12" fill="none" xmlns="http://www.w3.org/2000/svg">
<path d="M11.0204 7.131C10.9581 7.189 10.7228 7.437 10.5036 7.641C9.2186 8.924 5.86641 11.024 4.11188 11.665C3.84542 11.768 3.17176 11.986 2.81183 12C2.46694 12 2.13817 11.928 1.82444 11.782C1.43335 11.578 1.11962 11.257 0.94771 10.878C0.837045 10.615 0.665138 9.828 0.665138 9.814C0.493231 8.953 0.398682 7.554 0.398682 6.008C0.398682 4.535 0.493231 3.193 0.63398 2.319C0.650096 2.305 0.822003 1.327 1.01003 0.992C1.35492 0.38 2.02858 0 2.74951 0H2.81183C3.28135 0.015 4.26874 0.395 4.26874 0.409C5.92872 1.051 9.20356 3.048 10.5197 4.375C10.5197 4.375 10.8904 4.716 11.0516 4.929C11.303 5.235 11.4276 5.614 11.4276 5.993C11.4276 6.416 11.2869 6.81 11.0204 7.131Z" fill="white"/>
</svg>
