<svg width="20" height="20" viewBox="0 0 20 20" fill="none" xmlns="http://www.w3.org/2000/svg">
<path d="M9.0575 13.859C9.00917 13.8119 8.8025 13.6341 8.6325 13.4685C7.56333 12.4976 5.81333 9.96468 5.27917 8.63898C5.19333 8.43765 5.01167 7.92864 5 7.65668C5 7.39609 5.06 7.14767 5.18167 6.91062C5.35167 6.61511 5.61917 6.37806 5.935 6.24817C6.15417 6.16455 6.81 6.03466 6.82167 6.03466C7.53917 5.90477 8.705 5.83333 9.99333 5.83333C11.2208 5.83333 12.3392 5.90477 13.0675 6.01112C13.0792 6.0233 13.8942 6.15319 14.1733 6.29526C14.6833 6.55585 15 7.06486 15 7.60959V7.65668C14.9875 8.01145 14.6708 8.75751 14.6592 8.75751C14.1242 10.0118 12.46 12.4862 11.3542 13.4807C11.3542 13.4807 11.07 13.7608 10.8925 13.8825C10.6375 14.0725 10.3217 14.1667 10.0058 14.1667C9.65333 14.1667 9.325 14.0603 9.0575 13.859Z" fill="#BABAC4"/>
</svg>
