<svg width="37" height="37" viewBox="0 0 37 37" fill="none" xmlns="http://www.w3.org/2000/svg">
<path fill-rule="evenodd" clip-rule="evenodd" d="M35.8592 1.14085C34.4209 -0.296948 32.0896 -0.296948 30.6513 1.14085L18.5231 13.2691L6.3948 1.14085C4.94966 -0.254926 2.65252 -0.234964 1.23185 1.18571C-0.188829 2.60638 -0.20879 4.90352 1.18698 6.34867L13.3152 18.4769L1.18698 30.6052C0.22955 31.5299 -0.15443 32.8993 0.182626 34.187C0.519681 35.4747 1.52532 36.4803 2.81302 36.8174C4.10072 37.1544 5.47009 36.7705 6.3948 35.813L18.5231 23.6848L30.6513 35.813C32.0965 37.2088 34.3936 37.1888 35.8143 35.7682C37.235 34.3475 37.2549 32.0503 35.8592 30.6052L23.7309 18.4769L35.8592 6.34867C37.2969 4.91044 37.2969 2.57907 35.8592 1.14085Z" fill="#343E58"/>
</svg>
