<svg width="104" height="18" viewBox="0 0 104 18" fill="none" xmlns="http://www.w3.org/2000/svg">
<path d="M4.212 13.424C5.256 14 6.39 14.288 7.632 14.288C8.64 14.288 9.54 14.126 10.368 13.802C11.178 13.478 11.88 12.992 12.456 12.362C12.978 11.822 13.374 11.174 13.626 10.436C13.878 9.716 14.022 8.924 14.022 8.06C14.022 7.646 13.968 7.268 13.896 6.926H7.578V8.996H11.628C11.538 9.392 11.412 9.77 11.232 10.094C11.052 10.436 10.836 10.706 10.602 10.922C9.828 11.642 8.838 11.984 7.65 11.984C6.858 11.984 6.12 11.804 5.454 11.444C4.788 11.084 4.266 10.562 3.87 9.878C3.474 9.194 3.276 8.42 3.276 7.556C3.276 6.692 3.456 5.936 3.852 5.252C4.248 4.568 4.77 4.046 5.436 3.686C6.084 3.326 6.822 3.128 7.614 3.128C8.298 3.128 8.91 3.254 9.432 3.47C9.954 3.704 10.44 4.046 10.872 4.496L12.546 2.858C11.934 2.21 11.214 1.724 10.386 1.364C9.558 1.004 8.64 0.823999 7.632 0.823999C6.39 0.823999 5.256 1.13 4.212 1.706C3.168 2.282 2.358 3.092 1.746 4.118C1.134 5.144 0.828 6.296 0.828 7.556C0.828 8.834 1.134 9.986 1.746 11.012C2.358 12.038 3.168 12.848 4.212 13.424ZM16.1734 13.442C16.7854 14.018 17.5954 14.288 18.5674 14.288C19.1434 14.288 19.6654 14.18 20.1154 13.946C20.5654 13.73 20.9254 13.424 21.2134 13.064H21.3574V14H23.6794V8.348C23.6794 7.106 23.3014 6.152 22.5814 5.504C21.8434 4.856 20.7814 4.532 19.3774 4.532C18.5854 4.532 17.8474 4.694 17.1814 5C16.4974 5.324 15.9394 5.756 15.5074 6.332L17.0194 7.52C17.2714 7.196 17.6134 6.944 18.0094 6.746C18.4054 6.548 18.8374 6.44 19.2694 6.44C19.8994 6.44 20.4034 6.602 20.7814 6.908C21.1594 7.232 21.3574 7.628 21.3574 8.132V8.528C20.6734 8.258 19.8634 8.114 18.9274 8.114C18.2434 8.114 17.6134 8.24 17.0554 8.492C16.4794 8.744 16.0474 9.104 15.7234 9.572C15.3994 10.04 15.2374 10.58 15.2374 11.192C15.2374 12.128 15.5434 12.866 16.1734 13.442ZM20.7454 11.804C20.3494 12.236 19.8094 12.452 19.1254 12.452C18.6214 12.452 18.2434 12.344 17.9914 12.11C17.7214 11.876 17.5954 11.57 17.5954 11.192C17.5954 10.292 18.2074 9.824 19.4314 9.824C20.0974 9.824 20.7454 9.968 21.3574 10.256C21.3574 10.85 21.1414 11.372 20.7454 11.804ZM25.8493 1.112V14H28.2073V1.112H25.8493ZM30.8512 13.442C31.4632 14.018 32.2732 14.288 33.2452 14.288C33.8212 14.288 34.3432 14.18 34.7932 13.946C35.2432 13.73 35.6032 13.424 35.8912 13.064H36.0352V14H38.3572V8.348C38.3572 7.106 37.9792 6.152 37.2592 5.504C36.5212 4.856 35.4592 4.532 34.0552 4.532C33.2632 4.532 32.5252 4.694 31.8592 5C31.1752 5.324 30.6172 5.756 30.1852 6.332L31.6972 7.52C31.9492 7.196 32.2912 6.944 32.6872 6.746C33.0832 6.548 33.5152 6.44 33.9472 6.44C34.5772 6.44 35.0812 6.602 35.4592 6.908C35.8372 7.232 36.0352 7.628 36.0352 8.132V8.528C35.3512 8.258 34.5412 8.114 33.6052 8.114C32.9212 8.114 32.2912 8.24 31.7332 8.492C31.1572 8.744 30.7252 9.104 30.4012 9.572C30.0772 10.04 29.9152 10.58 29.9152 11.192C29.9152 12.128 30.2212 12.866 30.8512 13.442ZM35.4232 11.804C35.0272 12.236 34.4872 12.452 33.8032 12.452C33.2992 12.452 32.9212 12.344 32.6692 12.11C32.3992 11.876 32.2732 11.57 32.2732 11.192C32.2732 10.292 32.8852 9.824 34.1092 9.824C34.7752 9.824 35.4232 9.968 36.0352 10.256C36.0352 10.85 35.8192 11.372 35.4232 11.804ZM42.7071 9.338L39.5211 14H42.3111L44.0391 11.318H44.1471L45.9111 14H48.7011L45.4791 9.338L48.7011 4.82H45.8211L44.1831 7.448H44.0751L42.3291 4.82H39.5391L42.7071 9.338ZM52.9515 13.568L50.9895 17.888H53.5275L59.1975 4.82H56.5695L54.2835 10.526H54.1395L51.7635 4.82H49.0815L52.9515 13.568Z" fill="#343E58"/>
<path d="M67.7205 13.406C68.7465 14 69.8805 14.288 71.1405 14.288C72.1845 14.288 73.1565 14.09 74.0205 13.694C74.8845 13.298 75.6405 12.704 76.2885 11.93L74.5605 10.292C73.6425 11.426 72.5085 11.984 71.1585 11.984C70.3485 11.984 69.6105 11.804 68.9625 11.444C68.2965 11.084 67.7745 10.562 67.3965 9.878C67.0185 9.212 66.8385 8.438 66.8385 7.556C66.8385 6.692 67.0185 5.918 67.3965 5.234C67.7745 4.568 68.2965 4.046 68.9625 3.686C69.6105 3.326 70.3485 3.128 71.1585 3.128C72.3825 3.128 73.4265 3.614 74.2545 4.586L75.9645 2.93C74.6865 1.526 73.0845 0.823999 71.1405 0.823999C69.8805 0.823999 68.7465 1.13 67.7205 1.724C66.6765 2.318 65.8665 3.128 65.2725 4.154C64.6785 5.18 64.3905 6.314 64.3905 7.556C64.3905 8.816 64.6785 9.95 65.2725 10.976C65.8665 12.002 66.6765 12.812 67.7205 13.406ZM78.2769 13.442C78.8889 14.018 79.6989 14.288 80.6709 14.288C81.2469 14.288 81.7689 14.18 82.2189 13.946C82.6689 13.73 83.0289 13.424 83.3169 13.064H83.4609V14H85.7829V8.348C85.7829 7.106 85.4049 6.152 84.6849 5.504C83.9469 4.856 82.8849 4.532 81.4809 4.532C80.6889 4.532 79.9509 4.694 79.2849 5C78.6009 5.324 78.0429 5.756 77.6109 6.332L79.1229 7.52C79.3749 7.196 79.7169 6.944 80.1129 6.746C80.5089 6.548 80.9409 6.44 81.3729 6.44C82.0029 6.44 82.5069 6.602 82.8849 6.908C83.2629 7.232 83.4609 7.628 83.4609 8.132V8.528C82.7769 8.258 81.9669 8.114 81.0309 8.114C80.3469 8.114 79.7169 8.24 79.1589 8.492C78.5829 8.744 78.1509 9.104 77.8269 9.572C77.5029 10.04 77.3409 10.58 77.3409 11.192C77.3409 12.128 77.6469 12.866 78.2769 13.442ZM82.8489 11.804C82.4529 12.236 81.9129 12.452 81.2289 12.452C80.7249 12.452 80.3469 12.344 80.0949 12.11C79.8249 11.876 79.6989 11.57 79.6989 11.192C79.6989 10.292 80.3109 9.824 81.5349 9.824C82.2009 9.824 82.8489 9.968 83.4609 10.256C83.4609 10.85 83.2449 11.372 82.8489 11.804ZM87.9528 4.82V14H90.3108V9.428C90.3108 8.672 90.5088 8.024 90.9228 7.52C91.3188 7.016 91.8768 6.764 92.5788 6.764C92.8308 6.764 93.0648 6.8 93.2808 6.854C93.4968 6.908 93.7848 6.998 94.1088 7.106V4.748C93.7488 4.622 93.3708 4.55 92.9568 4.55C92.3808 4.55 91.8408 4.694 91.3728 4.982C90.8868 5.27 90.5268 5.612 90.3108 6.044H90.1668V4.82H87.9528ZM96.9255 13.658C97.6455 14.09 98.4735 14.288 99.3915 14.288C101.3 14.288 102.722 13.478 103.658 11.84L101.75 10.904C101.516 11.3 101.21 11.624 100.814 11.858C100.418 12.092 99.9675 12.2 99.4275 12.2C98.7795 12.2 98.2215 12.02 97.7535 11.642C97.2855 11.264 96.9975 10.706 96.8895 9.968H103.784C103.82 9.716 103.838 9.464 103.838 9.176C103.838 8.312 103.658 7.538 103.298 6.818C102.938 6.116 102.434 5.558 101.75 5.144C101.066 4.748 100.238 4.532 99.3015 4.532C98.4015 4.532 97.6095 4.766 96.8895 5.198C96.1695 5.648 95.5935 6.242 95.1975 6.998C94.7835 7.754 94.5855 8.564 94.5855 9.428C94.5855 10.364 94.7835 11.192 95.1975 11.93C95.6115 12.668 96.1875 13.244 96.9255 13.658ZM101.57 8.294H96.9975C97.1775 7.736 97.4655 7.286 97.8615 6.962C98.2575 6.638 98.7435 6.458 99.3195 6.458C99.7515 6.458 100.148 6.566 100.472 6.746C100.796 6.926 101.066 7.16 101.246 7.448C101.426 7.736 101.534 8.006 101.57 8.294Z" fill="#A076CF"/>
</svg>
