<svg width="20" height="20" viewBox="0 0 20 20" fill="none" xmlns="http://www.w3.org/2000/svg">
<path d="M13.8589 10.9425C13.8118 10.9908 13.634 11.1975 13.4684 11.3675C12.4975 12.4367 9.9646 14.1867 8.6389 14.7208C8.43757 14.8067 7.92856 14.9883 7.6566 15C7.39601 15 7.14759 14.94 6.91054 14.8183C6.61503 14.6483 6.37798 14.3808 6.24809 14.065C6.16447 13.8458 6.03458 13.19 6.03458 13.1783C5.90469 12.4608 5.83325 11.295 5.83325 10.0067C5.83325 8.77917 5.90469 7.66083 6.01104 6.9325C6.02322 6.92083 6.15311 6.10583 6.29518 5.82667C6.55577 5.31667 7.06478 5 7.60951 5H7.6566C8.01137 5.0125 8.75743 5.32917 8.75743 5.34083C10.0117 5.87583 12.4861 7.54 13.4806 8.64583C13.4806 8.64583 13.7607 8.93 13.8824 9.1075C14.0724 9.3625 14.1666 9.67833 14.1666 9.99417C14.1666 10.3467 14.0602 10.675 13.8589 10.9425Z" fill="#FC3B3B"/>
</svg>
