<svg width="16" height="16" viewBox="0 0 16 16" fill="none" xmlns="http://www.w3.org/2000/svg">
<path fill-rule="evenodd" clip-rule="evenodd" d="M10.9406 1.84566L10.9412 2.34541C12.7777 2.48934 13.9908 3.74071 13.9927 5.65975L14 11.2769C14.0026 13.3692 12.6882 14.6566 10.5812 14.6599L5.43459 14.6666C3.3408 14.6692 2.00988 13.3512 2.00724 11.253L2 5.70173C1.99737 3.77003 3.16768 2.52199 5.00411 2.35341L5.00345 1.85366C5.0028 1.56047 5.22001 1.33992 5.50963 1.33992C5.79924 1.33925 6.01645 1.55914 6.01711 1.85233L6.01777 2.31876L9.92759 2.31343L9.92693 1.847C9.92627 1.55381 10.1435 1.33392 10.4331 1.33325C10.7161 1.33259 10.9399 1.55248 10.9406 1.84566ZM3.01432 5.90764L12.9797 5.89431V5.66109C12.9514 4.22848 12.2327 3.47685 10.9426 3.36491L10.9432 3.87799C10.9432 4.16451 10.7201 4.39173 10.437 4.39173C10.1474 4.39239 9.92956 4.16584 9.92956 3.87932L9.9289 3.33959L6.01908 3.34492L6.01974 3.88398C6.01974 4.17117 5.80319 4.39772 5.51357 4.39772C5.22396 4.39839 5.00609 4.1725 5.00609 3.88531L5.00543 3.37224C3.7219 3.50084 3.01168 4.25513 3.01366 5.70041L3.01432 5.90764ZM10.1599 8.93612V8.94345C10.1665 9.24996 10.4166 9.48251 10.7201 9.47585C11.0163 9.46852 11.2526 9.21464 11.246 8.90813C11.2322 8.61495 10.9946 8.37573 10.699 8.3764C10.3962 8.38306 10.1593 8.6296 10.1599 8.93612ZM10.7036 11.9279C10.4008 11.9213 10.1566 11.6687 10.156 11.3622C10.1494 11.0557 10.3923 10.8018 10.6951 10.7945H10.7017C11.011 10.7945 11.2618 11.0471 11.2618 11.3602C11.2625 11.6734 11.0123 11.9273 10.7036 11.9279ZM7.44809 8.94678C7.46125 9.25329 7.71204 9.49251 8.01482 9.47918C8.31102 9.46519 8.54732 9.21198 8.53415 8.90547C8.52691 8.60562 8.28337 8.3724 7.98717 8.37307C7.68439 8.3864 7.44743 8.64027 7.44809 8.94678ZM8.01744 11.898C7.71466 11.9113 7.46454 11.6721 7.45072 11.3656C7.45072 11.0591 7.68702 10.8059 7.9898 10.7919C8.286 10.7912 8.5302 11.0244 8.53678 11.3236C8.5506 11.6308 8.31364 11.884 8.01744 11.898ZM4.7362 8.9701C4.74937 9.27661 5.00015 9.51649 5.30293 9.5025C5.59913 9.48917 5.83543 9.2353 5.82161 8.92878C5.81502 8.62893 5.57148 8.39572 5.27463 8.39639C4.97185 8.40971 4.73554 8.66358 4.7362 8.9701ZM5.30557 11.9013C5.00279 11.9153 4.75267 11.6754 4.73884 11.3689C4.73818 11.0624 4.97514 10.8085 5.27792 10.7952C5.57412 10.7945 5.81832 11.0277 5.8249 11.3276C5.83873 11.6341 5.60243 11.888 5.30557 11.9013Z" fill="#343E58"/>
</svg>
