<svg width="20" height="20" viewBox="0 0 20 20" fill="none" xmlns="http://www.w3.org/2000/svg">
<path fill-rule="evenodd" clip-rule="evenodd" d="M4.28682 8.27472H5.57324C5.93281 8.27472 6.22428 8.56619 6.22428 8.92576V15.0456C6.22428 15.4051 5.93281 15.6966 5.57324 15.6966H4.27116C2.83522 15.6966 1.66699 14.5284 1.66699 13.0924V10.8789C1.66699 9.91675 2.19189 9.07541 2.96995 8.62456C2.98877 6.77388 3.71777 5.03677 5.02848 3.72606C6.35651 2.39803 8.12223 1.66665 10.0003 1.66665C11.4656 1.66665 12.87 2.11307 14.0618 2.95763C15.2267 3.78322 16.1033 4.92462 16.5967 6.25848C16.7215 6.59572 16.5492 6.9702 16.212 7.09497C15.8747 7.21968 15.5002 7.04744 15.3755 6.71024C14.5476 4.47231 12.3875 2.96873 10.0003 2.96873C6.98359 2.96873 4.50413 5.31248 4.28682 8.27472Z" fill="#7D3FC4"/>
<path fill-rule="evenodd" clip-rule="evenodd" d="M14.4274 8.2747H15.7295C17.1654 8.2747 18.3337 9.44293 18.3337 10.8789V13.0924C18.3337 14.5283 17.1654 15.6966 15.7295 15.6966H15.0785V15.7291C15.0785 16.8061 14.2023 17.6823 13.1253 17.6823H11.1396V17.6616C10.9176 18.0621 10.4907 18.3333 10.0003 18.3333C9.28122 18.3333 8.69824 17.7503 8.69824 17.0312C8.69824 16.3121 9.28122 15.7291 10.0003 15.7291C10.4907 15.7291 10.9176 16.0003 11.1396 16.4008V16.3802H13.1253C13.4843 16.3802 13.7764 16.0881 13.7764 15.7291V15.0455V13.3854V8.92574C13.7764 8.56617 14.0678 8.2747 14.4274 8.2747Z" fill="#7D3FC4"/>
</svg>
