<svg width="31" height="31" viewBox="0 0 31 31" fill="none" xmlns="http://www.w3.org/2000/svg">
<rect x="3" y="27.7812" width="25" height="3.125" rx="1.5625" fill="#F6512A"/>
<path fill-rule="evenodd" clip-rule="evenodd" d="M10.3926 8.25C8.3946 8.25 6.703 9.72438 6.43012 11.7037L5.18931 20.7037C4.85793 23.1073 6.72551 25.25 9.15183 25.25H22.6295C25.0558 25.25 26.9234 23.1073 26.592 20.7037L25.3512 11.7037C25.0783 9.72438 23.3867 8.25 21.3887 8.25H10.3926ZM18.2813 10.5938C17.1767 10.5938 16.2813 11.4892 16.2813 12.5938V20.5938C16.2813 21.6983 17.1767 22.5938 18.2813 22.5938H21.8385C23.0379 22.5938 23.9675 21.5454 23.8242 20.3547L22.8609 12.3547C22.7399 11.3498 21.8873 10.5938 20.8752 10.5938H18.2813Z" fill="#F6512A"/>
<rect x="15" width="2" height="6" rx="1" fill="#F6512A"/>
<rect x="4" y="3" width="2" height="4.6875" rx="1" transform="rotate(-30 4 3)" fill="#F6512A"/>
<rect width="2" height="4.6875" rx="1" transform="matrix(0.866025 0.5 0.5 -0.866025 24 6.05945)" fill="#F6512A"/>
</svg>
