<svg width="18" height="18" viewBox="0 0 18 18" fill="none" xmlns="http://www.w3.org/2000/svg">
<path fill-rule="evenodd" clip-rule="evenodd" d="M7.24645 8.35833C6.88187 8.35833 6.59359 8.64166 6.59359 9C6.59359 9.35 6.88187 9.64166 7.24645 9.64166H12.3337V13.625C12.3337 15.6667 10.6464 17.3333 8.56065 17.3333H4.43153C2.35425 17.3333 0.666992 15.675 0.666992 13.6333V4.375C0.666992 2.325 2.36273 0.666664 4.44001 0.666664H8.5776C10.6464 0.666664 12.3337 2.325 12.3337 4.36666V8.35833H7.24645ZM15.3588 6.11683L17.7922 8.54183C17.9172 8.66683 17.9838 8.82516 17.9838 9.00016C17.9838 9.16683 17.9172 9.3335 17.7922 9.45016L15.3588 11.8752C15.2338 12.0002 15.0672 12.0668 14.9088 12.0668C14.7422 12.0668 14.5755 12.0002 14.4505 11.8752C14.2005 11.6252 14.2005 11.2168 14.4505 10.9668L15.7838 9.64183H12.3338V8.3585H15.7838L14.4505 7.0335C14.2005 6.7835 14.2005 6.37516 14.4505 6.12516C14.7005 5.86683 15.1088 5.86683 15.3588 6.11683Z" fill="#BABAC4"/>
</svg>
