<svg width="20" height="14" viewBox="0 0 20 14" fill="none" xmlns="http://www.w3.org/2000/svg">
<path fill-rule="evenodd" clip-rule="evenodd" d="M13.4649 3.8607C13.4649 5.81877 11.904 7.38883 9.9572 7.38883C8.01044 7.38883 6.44946 5.81877 6.44946 3.8607C6.44946 1.90189 8.01044 0.333328 9.9572 0.333328C11.904 0.333328 13.4649 1.90189 13.4649 3.8607ZM9.9572 13.6667C7.09788 13.6667 4.65641 13.2134 4.65641 11.4001C4.65641 9.58616 7.08221 9.11635 9.9572 9.11635C12.8165 9.11635 15.258 9.56965 15.258 11.3836C15.258 13.1968 12.8322 13.6667 9.9572 13.6667ZM14.9639 3.92435C14.9639 4.92252 14.6662 5.8524 14.1439 6.62542C14.0902 6.70497 14.1379 6.81229 14.2327 6.8288C14.3633 6.85132 14.4983 6.86408 14.6356 6.86783C16.0048 6.90386 17.2338 6.01751 17.5733 4.68311C18.0762 2.70102 16.5995 0.921574 14.7192 0.921574C14.5147 0.921574 14.3192 0.943339 14.129 0.982365C14.1028 0.988369 14.0752 1.00038 14.0603 1.02364C14.0424 1.05216 14.0558 1.09044 14.0737 1.1152C14.6386 1.91149 14.9639 2.88265 14.9639 3.92435ZM17.2315 8.26047C18.1516 8.44134 18.7567 8.81059 19.0074 9.3472C19.2193 9.78775 19.2193 10.2988 19.0074 10.7386C18.6239 11.5709 17.3875 11.8381 16.9069 11.9072C16.8077 11.9222 16.7279 11.8359 16.7383 11.7361C16.9838 9.42976 15.0311 8.33627 14.5259 8.08485C14.5043 8.07359 14.4998 8.05633 14.502 8.04583C14.5035 8.03832 14.5125 8.02631 14.5289 8.02406C15.622 8.0038 16.7973 8.1539 17.2315 8.26047ZM5.36393 6.86776C5.50123 6.864 5.63554 6.852 5.76686 6.82873C5.86163 6.81222 5.90938 6.7049 5.85566 6.62534C5.33334 5.85232 5.03562 4.92245 5.03562 3.92427C5.03562 2.88257 5.36095 1.91142 5.9258 1.11513C5.9437 1.09036 5.95639 1.05209 5.93923 1.02357C5.9243 1.00105 5.89595 0.988294 5.87058 0.98229C5.67956 0.943264 5.48407 0.921499 5.27961 0.921499C3.39927 0.921499 1.9226 2.70095 2.42627 4.68303C2.76577 6.01743 3.99471 6.90378 5.36393 6.86776ZM5.49712 8.04537C5.49936 8.05663 5.49488 8.07314 5.47399 8.08515C4.96809 8.33657 3.01537 9.43006 3.26086 11.7356C3.2713 11.8362 3.19221 11.9217 3.09297 11.9075C2.61243 11.8384 1.37603 11.5713 0.992501 10.7389C0.779843 10.2984 0.779843 9.78805 0.992501 9.3475C1.24321 8.81089 1.84761 8.44164 2.76764 8.26002C3.20265 8.1542 4.37712 8.0041 5.47101 8.02436C5.48742 8.02661 5.49563 8.03862 5.49712 8.04537Z" fill="#00C57D"/>
</svg>
