<svg width="20" height="20" viewBox="0 0 20 20" fill="none" xmlns="http://www.w3.org/2000/svg">
<path fill-rule="evenodd" clip-rule="evenodd" d="M15.5892 7.33026C15.5892 8.37687 15.8658 8.99376 16.4746 9.70465C16.9359 10.2284 17.0833 10.9007 17.0833 11.63C17.0833 12.3585 16.8439 13.0501 16.3644 13.6116C15.7366 14.2847 14.8512 14.7144 13.9477 14.7891C12.6382 14.9008 11.328 14.9948 10.0004 14.9948C8.67191 14.9948 7.3625 14.9385 6.05309 14.7891C5.14867 14.7144 4.26331 14.2847 3.63635 13.6116C3.15681 13.0501 2.91663 12.3585 2.91663 11.63C2.91663 10.9007 3.06488 10.2284 3.52537 9.70465C4.15316 8.99376 4.41156 8.37687 4.41156 7.33026V6.97524C4.41156 5.57361 4.76107 4.65709 5.48079 3.75988C6.55085 2.4514 8.26609 1.66666 9.9631 1.66666H10.0376C11.7711 1.66666 13.5418 2.48917 14.5937 3.85388C15.2761 4.73263 15.5892 5.61054 15.5892 6.97524V7.33026ZM7.56135 16.7174C7.56135 16.2977 7.94648 16.1055 8.30261 16.0232C8.7192 15.9351 11.2577 15.9351 11.6743 16.0232C12.0304 16.1055 12.4155 16.2977 12.4155 16.7174C12.3948 17.1169 12.1604 17.471 11.8366 17.696C11.4167 18.0233 10.9239 18.2306 10.4088 18.3053C10.1239 18.3422 9.84392 18.3431 9.56895 18.3053C9.05298 18.2306 8.56019 18.0233 8.14111 17.6951C7.81645 17.471 7.58206 17.1169 7.56135 16.7174Z" fill="#343E58"/>
</svg>
