<svg width="20" height="20" viewBox="0 0 20 20" fill="none" xmlns="http://www.w3.org/2000/svg">
<path fill-rule="evenodd" clip-rule="evenodd" d="M7.4382 13.6583H11.9267C12.2649 13.6583 12.5455 13.375 12.5455 13.0333C12.5455 12.6917 12.2649 12.4167 11.9267 12.4167H7.4382C7.09992 12.4167 6.81939 12.6917 6.81939 13.0333C6.81939 13.375 7.09992 13.6583 7.4382 13.6583ZM10.227 8.25H7.4382C7.09992 8.25 6.81939 8.53334 6.81939 8.87501C6.81939 9.21667 7.09992 9.49167 7.4382 9.49167H10.227C10.5653 9.49167 10.8458 9.21667 10.8458 8.87501C10.8458 8.53334 10.5653 8.25 10.227 8.25ZM16.1151 7.52135C16.3091 7.51911 16.5203 7.51667 16.7121 7.51667C16.9184 7.51667 17.0834 7.68334 17.0834 7.89167V14.5917C17.0834 16.6583 15.425 18.3333 13.3788 18.3333H6.81114C4.66592 18.3333 2.91675 16.575 2.91675 14.4083V5.42501C2.91675 3.35834 4.58341 1.66667 6.63787 1.66667H11.0438C11.2583 1.66667 11.4234 1.84167 11.4234 2.05001V4.73334C11.4234 6.25834 12.6692 7.50834 14.1791 7.51667C14.5318 7.51667 14.8427 7.51931 15.1148 7.52162C15.3265 7.52341 15.5147 7.52501 15.6808 7.52501C15.7982 7.52501 15.9505 7.52325 16.1151 7.52135ZM16.3427 6.30501C15.6644 6.30751 14.8649 6.30501 14.2899 6.29917C13.3773 6.29917 12.6257 5.54001 12.6257 4.61834V2.42167C12.6257 2.06251 13.0572 1.88417 13.3039 2.14334C13.7508 2.61272 14.3652 3.2581 14.9766 3.90035C15.5853 4.53974 16.191 5.17603 16.6257 5.63251C16.8666 5.885 16.69 6.30417 16.3427 6.30501Z" fill="#FC3B3B"/>
</svg>
