<svg width="16" height="16" viewBox="0 0 16 16" fill="none" xmlns="http://www.w3.org/2000/svg">
<path fill-rule="evenodd" clip-rule="evenodd" d="M7.99992 14.6668C4.31992 14.6668 1.33325 11.6868 1.33325 8.00016C1.33325 4.32016 4.31992 1.3335 7.99992 1.3335C11.6866 1.3335 14.6666 4.32016 14.6666 8.00016C14.6666 11.6868 11.6866 14.6668 7.99992 14.6668ZM10.1266 10.4735C10.2066 10.5202 10.2933 10.5468 10.3866 10.5468C10.5533 10.5468 10.7199 10.4602 10.8133 10.3002C10.9533 10.0668 10.8799 9.76016 10.6399 9.6135L8.26658 8.20016V5.12016C8.26658 4.84016 8.03992 4.62016 7.76658 4.62016C7.49325 4.62016 7.26658 4.84016 7.26658 5.12016V8.48683C7.26658 8.66016 7.35992 8.82016 7.51325 8.9135L10.1266 10.4735Z" fill="#BABAC4"/>
</svg>
