<svg width="16" height="18" viewBox="0 0 16 18" fill="none" xmlns="http://www.w3.org/2000/svg">
<path fill-rule="evenodd" clip-rule="evenodd" d="M4.50833 0.666672H11.4925C14.0667 0.666672 15.5 2.15001 15.5 4.69167V13.3C15.5 15.8833 14.0667 17.3333 11.4925 17.3333H4.50833C1.975 17.3333 0.5 15.8833 0.5 13.3V4.69167C0.5 2.15001 1.975 0.666672 4.50833 0.666672ZM4.73333 4.55001V4.54167H7.22417C7.58333 4.54167 7.875 4.83334 7.875 5.19084C7.875 5.55834 7.58333 5.85001 7.22417 5.85001H4.73333C4.37417 5.85001 4.08333 5.55834 4.08333 5.20001C4.08333 4.84167 4.37417 4.55001 4.73333 4.55001ZM4.73333 9.61667H11.2667C11.625 9.61667 11.9167 9.325 11.9167 8.96667C11.9167 8.60834 11.625 8.31584 11.2667 8.31584H4.73333C4.37417 8.31584 4.08333 8.60834 4.08333 8.96667C4.08333 9.325 4.37417 9.61667 4.73333 9.61667ZM4.73333 13.425H11.2667C11.5992 13.3917 11.85 13.1075 11.85 12.775C11.85 12.4333 11.5992 12.15 11.2667 12.1167H4.73333C4.48333 12.0917 4.24167 12.2083 4.10833 12.425C3.975 12.6333 3.975 12.9083 4.10833 13.125C4.24167 13.3333 4.48333 13.4583 4.73333 13.425Z" fill="#FF9900"/>
</svg>
