<svg width="20" height="20" viewBox="0 0 20 20" fill="none" xmlns="http://www.w3.org/2000/svg">
<path d="M11.8516 1.1916C12.7932 2.32356 13.5385 3.65503 14.0541 5.11095H17.5591C16.2742 3.13401 14.2346 1.6905 11.8516 1.1916Z" fill="#343E58"/>
<path d="M2.44824 5.11027H5.97695C6.10902 4.74362 6.25589 4.38348 6.41747 4.0315C6.89665 2.98764 7.49692 2.02693 8.19247 1.18297C5.79357 1.6746 3.73977 3.12317 2.44824 5.11027Z" fill="#343E58"/>
<path d="M10.0042 1.00008C9.76521 1.00008 9.5284 1.00964 9.29402 1.028C8.21246 2.1603 7.3469 3.56346 6.75391 5.11036H13.288C12.7024 3.55354 11.8369 2.15823 10.7388 1.03018C10.4964 1.01052 10.2515 1.00008 10.0042 1.00008Z" fill="#343E58"/>
<path d="M11.976 10.3604C11.9756 10.3609 11.9751 10.3614 11.9747 10.3619L10.3316 12.112C10.2466 12.2026 10.128 12.2539 10.0038 12.2539C9.87962 12.2539 9.76099 12.2025 9.67601 12.112L8.03291 10.3619C8.03245 10.3614 8.03203 10.3609 8.03157 10.3604H5.85352C5.88784 11.683 6.10344 12.9673 6.48052 14.1691H13.5129C13.8961 12.9556 14.118 11.6675 14.1537 10.3604H11.976Z" fill="#343E58"/>
<path d="M14.1552 9.64014C14.1234 8.31859 13.9103 7.03419 13.5357 5.8315H6.50063C6.11164 7.04724 5.88732 8.33574 5.85352 9.64014H7.65063V9.64011C7.62612 9.53052 7.61275 9.41672 7.61275 9.29972C7.61275 8.44209 8.31375 7.74382 9.17169 7.74663C9.4781 7.74762 9.76366 7.8373 10.004 7.99132L10.0041 7.99149C10.2444 7.83741 10.53 7.74769 10.8365 7.74667C11.6945 7.74378 12.3956 8.44213 12.3956 9.2998C12.3956 9.41676 12.3822 9.53056 12.3577 9.64018H14.1552V9.64014Z" fill="#343E58"/>
<path d="M17.9816 5.8315H14.2881C14.6441 7.04077 14.8458 8.32358 14.876 9.64014H19C18.9458 8.27039 18.584 6.97851 17.9816 5.8315Z" fill="#343E58"/>
<path d="M14.0375 14.8893C13.909 15.2504 13.7663 15.6051 13.6096 15.9518C13.1353 17.0012 12.5408 17.9647 11.8516 18.8088C14.2349 18.31 16.2747 16.8664 17.5597 14.8893H14.0375Z" fill="#343E58"/>
<path d="M6.73047 14.8893C7.32131 16.4493 8.19367 17.8456 9.30019 18.9723C9.53253 18.9904 9.76726 18.9997 10.0042 18.9997C10.2557 18.9997 10.5047 18.9888 10.751 18.9685C11.8206 17.8417 12.6767 16.4397 13.2633 14.8893H6.73047Z" fill="#343E58"/>
<path d="M14.8753 10.3604C14.842 11.6538 14.6372 12.9417 14.2725 14.1691H17.9816C18.5839 13.0221 18.9458 11.7302 19 10.3604H14.8753Z" fill="#343E58"/>
<path d="M2.02623 5.8315C1.42389 6.97851 1.06208 8.27039 1.00781 9.64014H5.13208C5.16342 8.34801 5.36966 7.0601 5.73907 5.8315H2.02623Z" fill="#343E58"/>
<path d="M5.96264 14.8893H2.44824C3.73833 16.8743 5.7891 18.3217 8.18455 18.815C7.235 17.6829 6.4831 16.3493 5.96264 14.8893Z" fill="#343E58"/>
<path d="M5.13243 10.3604H1.00781C1.06208 11.7302 1.42389 13.0221 2.02623 14.1691H5.7276C5.36931 12.9606 5.16507 11.6779 5.13243 10.3604Z" fill="#343E58"/>
</svg>
